<svg width="500" height="147" viewBox="0 0 500 147" fill="none" xmlns="http://www.w3.org/2000/svg">
<g clip-path="url(#clip0_8444_35190)">
<path d="M136.378 67.1557L164.868 146.295H149.38L144.518 132.615H115.123L110.262 146.295H94.6601L123.15 67.1557H136.378ZM139.204 118.031L129.821 91.9151L117.385 126.623V126.85C117.385 127.302 117.651 127.528 118.176 127.528C118.349 127.517 118.519 127.472 118.674 127.394C118.83 127.317 118.968 127.208 119.08 127.076L127.22 118.031H139.204ZM224.915 71.6237C227.93 74.524 229.437 79.102 229.437 85.3578V95.8721C229.437 105.143 225.932 110.871 218.923 113.057L223.111 124.57L211.665 136.016L203.66 114.074H189.867V146.295H175.17V93.2718L183.875 83.775C183.991 83.6554 184.08 83.5134 184.139 83.3579C184.197 83.2023 184.223 83.0365 184.215 82.8705C184.215 82.1922 183.912 81.853 183.31 81.853H175.17V67.2687H211.348C217.378 67.2687 221.9 68.7204 224.915 71.6237ZM214.853 85.3578C214.853 83.0243 213.685 81.8561 211.348 81.853H189.867V99.3768H211.348C213.682 99.3768 214.85 98.2086 214.853 95.8721V85.3578ZM74.5044 132.842H80.2702L98.0201 67.1557H82.8706L69.3038 119.162L55.9631 67.1557H42.0571L28.6033 119.162L15.1496 67.1557H0L21.2547 146.295H35.952L48.9535 97.794L61.9551 146.295H76.4263L73.3738 134.651C73.2198 134.25 73.2198 133.807 73.3738 133.407C73.523 133.032 73.8984 132.842 74.5044 132.842ZM421.652 113.057L433.749 146.295H418.147L406.389 114.074H392.596V146.295H377.899V93.2718L386.604 83.775C386.719 83.6554 386.809 83.5134 386.867 83.3579C386.926 83.2023 386.952 83.0365 386.943 82.8705C386.943 82.1922 386.64 81.853 386.039 81.853H377.899V67.2687H414.077C420.107 67.2687 424.629 68.7204 427.644 71.6237C430.659 74.527 432.166 79.105 432.166 85.3578V95.8721C432.166 105.143 428.661 110.871 421.652 113.057ZM417.582 85.3578C417.582 83.0243 416.413 81.8561 414.077 81.853H392.596V99.3768H414.077C416.41 99.3768 417.579 98.2086 417.582 95.8721V85.3578ZM339.111 67.1557L367.602 146.295H352.113L347.251 132.615H317.857L312.995 146.295H297.393L325.884 67.1557H339.111ZM341.938 118.031L332.554 91.9151L320.118 126.623V126.85C320.118 127.302 320.38 127.528 320.909 127.528C321.082 127.516 321.252 127.47 321.407 127.393C321.562 127.315 321.7 127.207 321.814 127.076L329.954 118.031H341.938ZM500 81.74V67.1557H445.733V146.295H500V131.598H460.43V114.074H492.651V99.3768H471.849L462.352 108.082C462.232 108.197 462.09 108.286 461.935 108.345C461.779 108.403 461.614 108.429 461.448 108.421C460.769 108.421 460.43 108.123 460.43 107.517V81.74H500ZM259.506 108.082C259.386 108.197 259.244 108.287 259.089 108.345C258.933 108.404 258.767 108.43 258.601 108.421C257.923 108.421 257.584 108.123 257.584 107.517L257.688 90.0203L243 104.681V146.286H257.697V114.074H289.918V99.3768H269.003L259.506 108.082ZM265.941 81.74H297.267V67.1557H280.534L265.941 81.74ZM26.6271 29.3495H33.8627L30.2449 17.4967L26.6271 29.3495ZM192.712 16.0857H183.871C182.93 16.0857 182.46 16.556 182.46 17.4967V34.8983C182.46 35.839 182.93 36.3093 183.871 36.3093H192.712C193.653 36.3093 194.123 35.839 194.123 34.8983V17.4967C194.123 16.556 193.653 16.0857 192.712 16.0857ZM0 0V52.4583H295.223L347.681 0H0ZM37.9599 42.6585L35.8435 35.6988H24.6961L22.5797 42.6585H15.1496L25.9216 9.73644H34.8576L45.6297 42.6585H37.9599ZM81.1521 42.6585H58.1971V9.73644H65.487V36.3093H81.1521V42.6585ZM117.615 42.6585H94.6601V9.73644H101.95V36.3093H117.615V42.6585ZM158.316 29.137H130.002V23.258H158.279L158.316 29.137ZM201.413 35.2737C201.413 39.6919 198.451 42.654 194.028 42.654H182.505C178.132 42.654 175.17 39.6919 175.17 35.2737V17.1213C175.17 12.6985 178.132 9.73644 182.505 9.73644H194.028C198.451 9.73644 201.413 12.6985 201.413 17.1213V35.2737ZM242.927 35.2737C242.927 39.6919 239.965 42.654 235.542 42.654H224.02C219.647 42.654 216.684 39.6919 216.684 35.2737V9.73644H223.974V34.8983C223.974 35.839 224.445 36.3093 225.385 36.3093H234.226C235.167 36.3093 235.637 35.839 235.637 34.8983V9.73644H242.927V35.2737ZM280.525 16.0812H270.979V42.6585H263.689V16.0857H254.151V9.75453H280.534L280.525 16.0812Z" fill="#26FFDF"/>
</g>
<defs>
<clipPath id="clip0_8444_35190">
<rect width="500" height="146.295" fill="white"/>
</clipPath>
</defs>
</svg>
